<svg width="163" height="162" viewBox="0 0 163 162" fill="none" xmlns="http://www.w3.org/2000/svg">
<path d="M70 6.26666C67.0667 13.3333 65.7333 16.2667 27.0667 101.333L0 160.667L6.66667 161.067C10.2667 161.333 13.8667 161.2 14.6667 160.933C15.4667 160.533 30.5333 127.867 48.1333 88.1333C65.7333 48.5333 80.5333 16 80.9333 16C81.7333 16 104.4 66.2667 134.267 134L146 160.667L154.133 161.067C158.533 161.333 162.133 161.2 162.133 160.8C162.133 160.4 158.533 152.133 154 142.4C144.667 122.267 96 14.2667 92.1333 5.60001L89.7333 0H81.2H72.6667L70 6.26666Z" fill="black"/>
<path d="M69.4668 99.0667C63.0668 112 58.0001 123.067 58.4001 123.333C58.8001 123.733 69.2001 123.867 81.7334 123.733L104.267 123.333L92.6668 99.3333L81.2001 75.3333L69.4668 99.0667Z" fill="black"/>
</svg>
